{"title":"Any Day Now 2012 BRRip XviD","uid":12518592,"size":1191941868,"categoryP":"video","categoryS":"movies","magnet":"?xt=urn:btih:781312c8e6e87a0904c10e29b350f7aa068403c4&amp;dn=Any+Day+Now+2012+BRRip+XviD&amp;tr=udp%3A%2F%2Ftracker.leechers-paradise.org%3A6969&amp;tr=udp%3A%2F%2Fzer0day.ch%3A1337&amp;tr=udp%3A%2F%2Fopen.demonii.com%3A1337&amp;tr=udp%3A%2F%2Ftracker.coppersurfer.tk%3A6969&amp;tr=udp%3A%2F%2Fexodus.desync.com%3A6969","seeders":0,"leechers":0,"uploader":"Joker__TPB","files":4,"time":1443809495,"description":"===================================================================================\r\nIn the late 1970s| when a mentally handicapped teenager is abandoned| a gay couple takes him in and becomes the family he's never had. But once the unconventional\r\nliving arrangement is discovered by authorities| the men must fight a biased legal system to adopt the child they have come to love as their own.\r\n===================================================================================\r\nVideo\r\nID                                       : 0\r\nFormat                                   : MPEG-4 Visual\r\nFormat profile                           :   \r\nFormat settings, BVOP                    : No\r\nFormat settings, QPel                    : No\r\nFormat settings, GMC                     : No warppoints\r\nFormat settings, Matrix                  : Default (H.263)\r\nCodec ID                                 : XVID\r\nCodec ID/Hint                            : XviD\r\nDuration                                 : 1h 38mn\r\nBit rate                                 : 1 409 Kbps\r\nWidth                                    : 720 pixels\r\nHeight                                   : 300 pixels\r\nDisplay aspect ratio                     : 2.40:1\r\nFrame rate                               : 23.976 fps\r\nColor space                              : YUV\r\nChroma subsampling                       : 4:2:0\r\nBit depth                                : 8 bits\r\nScan type                                : Progressive\r\nCompression mode                         : Lossy\r\nBits/(Pixel*Frame)                       : 0.272\r\nStream size                              : 988 MiB (87%)\r\nTitle                                    : RARBG.COM - Any.Day.Now.2012.BRRip.XviD.MP3-RARBG\r\nWriting library                          : Lavc56.60.100\r\n\r\nAudio\r\nID                                       : 1\r\nFormat                                   : MPEG Audio\r\nFormat version                           : Version 1\r\nFormat profile                           : Layer 3\r\nMode                                     : Joint stereo\r\nMode extension                           : MS Stereo\r\nCodec ID                                 : 55\r\nCodec ID/Hint                            : MP3\r\nDuration                                 : 1h 39mn\r\nBit rate mode                            : Constant\r\nBit rate                                 : 192 Kbps\r\nChannel(s)                               : 2 channels\r\nSampling rate                            : 48.0 KHz\r\nCompression mode                         : Lossy\r\nStream size                              : 136 MiB (12%)\r\nAlignment                                : Aligned on interleaves\r\nInterleave, duration                     : 24 ms (0.57 video frame)\r\nInterleave, preload duration             : 24 ms\r\nWriting library                          : LAME3.99.5\r\n===================================================================================","torrent":{"xt":"urn:btih:781312c8e6e87a0904c10e29b350f7aa068403c4","amp;dn":"Any+Day+Now+2012+BRRip+XviD","amp;tr":["udp%3A%2F%2Ftracker.leechers-paradise.org%3A6969","udp%3A%2F%2Fzer0day.ch%3A1337","udp%3A%2F%2Fopen.demonii.com%3A1337","udp%3A%2F%2Ftracker.coppersurfer.tk%3A6969","udp%3A%2F%2Fexodus.desync.com%3A6969"],"infoHash":"781312c8e6e87a0904c10e29b350f7aa068403c4","infoHashBuffer":{"type":"Buffer","data":[120,19,18,200,230,232,122,9,4,193,14,41,179,80,247,170,6,132,3,196]},"announce":[],"urlList":[]}}